# xmcd
#
# Track frame offsets:
#	150
#	12582
#	32252
#	41930
#	63900
#	77667
#	88785
#	106677
#	119210
#	127235
#	145065
#	153747
#	169525
#
# Disc length: 2432 seconds
#
# Revision: 4
# Processed by: cddbd v1.5.1PL2 Copyright (c) Steve Scherf et al.
# Submitted via: audiograbber 1.83.01
#
DISCID=ae097e0d,af097e0d
DTITLE=RTL3  - Gitarre x 3 (Ratzenbeck, Theessink, Langer)
DYEAR=1998
DGENRE=Folk-Rock
TTITLE0=Jerry's Breakdown
TTITLE1=a) Der Klügere kippt nach, b) Happy Meeting In Glory
TTITLE2=Lady Madonna
TTITLE3=Mexico
TTITLE4=Lommel
TTITLE5=Wackelstein Landler
TTITLE6=Call Me
TTITLE7=Nashville Picking
TTITLE8=Forty Shades Of Green
TTITLE9=Big Bill's Guitar
TTITLE10=Danza Colombiana
TTITLE11=Good Old Boys
TTITLE12=San Francisco Bay Blues
EXTD=
EXTT0=
EXTT1=
EXTT2=
EXTT3=
EXTT4=
EXTT5=
EXTT6=
EXTT7=
EXTT8=
EXTT9=
EXTT10=
EXTT11=
EXTT12=
PLAYORDER=
